<mxfile host="Electron" modified="2024-05-09T07:45:18.471Z" agent="Mozilla/5.0 (Windows NT 10.0; Win64; x64) AppleWebKit/537.36 (KHTML, like Gecko) draw.io/24.2.5 Chrome/120.0.6099.109 Electron/28.1.0 Safari/537.36" etag="YjZbICedZ8SprqE7L5CX" version="24.2.5" type="device">
  <diagram name="第 1 页" id="p-3RSeht7u77FKdnrFvP">
    <mxGraphModel dx="1674" dy="836" grid="1" gridSize="10" guides="1" tooltips="1" connect="1" arrows="1" fold="1" page="1" pageScale="1" pageWidth="827" pageHeight="1169" math="0" shadow="0">
      <root>
        <mxCell id="0" />
        <mxCell id="1" parent="0" />
        <mxCell id="qoKtTVkUw71cfdOL7Ugv-2" value="&lt;h3&gt;阶段一：ERP 实施&lt;br&gt;（关键：承载业务）&lt;/h3&gt;" style="html=1;outlineConnect=0;whiteSpace=wrap;fillColor=#99ffff;shape=mxgraph.archimate3.function;direction=south;" parent="1" vertex="1">
          <mxGeometry x="144" y="380" width="240" height="60" as="geometry" />
        </mxCell>
        <mxCell id="qoKtTVkUw71cfdOL7Ugv-5" value="&lt;h3&gt;阶段二：利润报表&lt;br&gt;（数据全面、&lt;span style=&quot;background-color: initial;&quot;&gt;准确）&lt;/span&gt;&lt;/h3&gt;" style="html=1;outlineConnect=0;whiteSpace=wrap;fillColor=#99ffff;shape=mxgraph.archimate3.function;direction=south;" parent="1" vertex="1">
          <mxGeometry x="344" y="380" width="240" height="60" as="geometry" />
        </mxCell>
        <mxCell id="qoKtTVkUw71cfdOL7Ugv-6" value="&lt;h3&gt;阶段三：数据分析&lt;br&gt;（指标体系/可视化看板）&lt;/h3&gt;" style="html=1;outlineConnect=0;whiteSpace=wrap;fillColor=#99ffff;shape=mxgraph.archimate3.function;direction=south;" parent="1" vertex="1">
          <mxGeometry x="544" y="380" width="240" height="60" as="geometry" />
        </mxCell>
        <mxCell id="qoKtTVkUw71cfdOL7Ugv-7" value="&lt;h3&gt;阶段四：数据预测&lt;br&gt;（预测模型/实验）&lt;/h3&gt;" style="html=1;outlineConnect=0;whiteSpace=wrap;fillColor=#99ffff;shape=mxgraph.archimate3.function;direction=south;" parent="1" vertex="1">
          <mxGeometry x="744" y="380" width="240" height="60" as="geometry" />
        </mxCell>
        <mxCell id="0dKkaH4FrhMoxClk_v_9-1" value="" style="whiteSpace=wrap;html=1;rounded=1;shadow=0;strokeWidth=8;fontSize=20;align=center;fillColor=#FED217;strokeColor=#FFFFFF;" vertex="1" parent="1">
          <mxGeometry x="147" y="530" width="280" height="430" as="geometry" />
        </mxCell>
        <mxCell id="0dKkaH4FrhMoxClk_v_9-2" value="阶段一：ERP实施" style="text;html=1;strokeColor=none;fillColor=none;align=center;verticalAlign=middle;whiteSpace=wrap;rounded=0;shadow=0;fontSize=27;fontColor=#FFFFFF;fontStyle=1" vertex="1" parent="1">
          <mxGeometry x="147" y="550" width="280" height="60" as="geometry" />
        </mxCell>
        <mxCell id="0dKkaH4FrhMoxClk_v_9-3" value="Blog&lt;div&gt;Keywords&lt;/div&gt;&lt;div&gt;Social Media&lt;/div&gt;" style="text;html=1;strokeColor=none;fillColor=none;align=center;verticalAlign=middle;whiteSpace=wrap;rounded=0;shadow=0;fontSize=14;fontColor=#FFFFFF;" vertex="1" parent="1">
          <mxGeometry x="147" y="850" width="280" height="90" as="geometry" />
        </mxCell>
        <mxCell id="0dKkaH4FrhMoxClk_v_9-4" value="" style="line;strokeWidth=2;html=1;rounded=0;shadow=0;fontSize=27;align=center;fillColor=none;strokeColor=#FFFFFF;" vertex="1" parent="1">
          <mxGeometry x="167" y="610" width="240" height="10" as="geometry" />
        </mxCell>
        <mxCell id="0dKkaH4FrhMoxClk_v_9-5" value="" style="line;strokeWidth=2;html=1;rounded=0;shadow=0;fontSize=27;align=center;fillColor=none;strokeColor=#FFFFFF;" vertex="1" parent="1">
          <mxGeometry x="167" y="830" width="240" height="10" as="geometry" />
        </mxCell>
        <mxCell id="0dKkaH4FrhMoxClk_v_9-6" value="STRANGERS" style="ellipse;whiteSpace=wrap;html=1;rounded=0;shadow=0;strokeWidth=6;fontSize=14;align=center;fillColor=#BFB4A9;strokeColor=#FFFFFF;fontColor=#FFFFFF;" vertex="1" parent="1">
          <mxGeometry x="90" y="670" width="115" height="115" as="geometry" />
        </mxCell>
        <mxCell id="0dKkaH4FrhMoxClk_v_9-7" value="" style="html=1;shadow=0;dashed=0;align=center;verticalAlign=middle;shape=mxgraph.arrows2.stylisedArrow;dy=0.6;dx=40;notch=15;feather=0.4;rounded=0;strokeWidth=1;fontSize=27;strokeColor=none;fillColor=#fff2cc;" vertex="1" parent="1">
          <mxGeometry x="237" y="698" width="100" height="60" as="geometry" />
        </mxCell>
        <mxCell id="0dKkaH4FrhMoxClk_v_9-8" value="" style="whiteSpace=wrap;html=1;rounded=1;shadow=0;strokeWidth=8;fontSize=20;align=center;fillColor=#FFC001;strokeColor=#FFFFFF;" vertex="1" parent="1">
          <mxGeometry x="427" y="530" width="280" height="430" as="geometry" />
        </mxCell>
        <mxCell id="0dKkaH4FrhMoxClk_v_9-9" value="阶段二：利润报表" style="text;html=1;strokeColor=none;fillColor=none;align=center;verticalAlign=middle;whiteSpace=wrap;rounded=0;shadow=0;fontSize=27;fontColor=#FFFFFF;fontStyle=1" vertex="1" parent="1">
          <mxGeometry x="427" y="550" width="280" height="60" as="geometry" />
        </mxCell>
        <mxCell id="0dKkaH4FrhMoxClk_v_9-10" value="Forms&lt;div&gt;Calls-to-Action&lt;/div&gt;&lt;div&gt;Landing Pages&lt;/div&gt;" style="text;html=1;strokeColor=none;fillColor=none;align=center;verticalAlign=middle;whiteSpace=wrap;rounded=0;shadow=0;fontSize=14;fontColor=#FFFFFF;" vertex="1" parent="1">
          <mxGeometry x="427" y="850" width="280" height="90" as="geometry" />
        </mxCell>
        <mxCell id="0dKkaH4FrhMoxClk_v_9-11" value="" style="line;strokeWidth=2;html=1;rounded=0;shadow=0;fontSize=27;align=center;fillColor=none;strokeColor=#FFFFFF;" vertex="1" parent="1">
          <mxGeometry x="447" y="610" width="240" height="10" as="geometry" />
        </mxCell>
        <mxCell id="0dKkaH4FrhMoxClk_v_9-12" value="" style="line;strokeWidth=2;html=1;rounded=0;shadow=0;fontSize=27;align=center;fillColor=none;strokeColor=#FFFFFF;" vertex="1" parent="1">
          <mxGeometry x="447" y="830" width="240" height="10" as="geometry" />
        </mxCell>
        <mxCell id="0dKkaH4FrhMoxClk_v_9-13" value="VISITORS" style="ellipse;whiteSpace=wrap;html=1;rounded=0;shadow=0;strokeWidth=6;fontSize=14;align=center;fillColor=#397DAA;strokeColor=#FFFFFF;fontColor=#FFFFFF;" vertex="1" parent="1">
          <mxGeometry x="370" y="670" width="115" height="115" as="geometry" />
        </mxCell>
        <mxCell id="0dKkaH4FrhMoxClk_v_9-14" value="" style="html=1;shadow=0;dashed=0;align=center;verticalAlign=middle;shape=mxgraph.arrows2.stylisedArrow;dy=0.6;dx=40;notch=15;feather=0.4;rounded=0;strokeWidth=1;fontSize=27;strokeColor=none;fillColor=#fff2cc;" vertex="1" parent="1">
          <mxGeometry x="517" y="698" width="100" height="60" as="geometry" />
        </mxCell>
        <mxCell id="0dKkaH4FrhMoxClk_v_9-15" value="" style="whiteSpace=wrap;html=1;rounded=1;shadow=0;strokeWidth=8;fontSize=20;align=center;fillColor=#FFB001;strokeColor=#FFFFFF;" vertex="1" parent="1">
          <mxGeometry x="707" y="530" width="280" height="430" as="geometry" />
        </mxCell>
        <mxCell id="0dKkaH4FrhMoxClk_v_9-16" value="阶段三：数据分析" style="text;html=1;strokeColor=none;fillColor=none;align=center;verticalAlign=middle;whiteSpace=wrap;rounded=0;shadow=0;fontSize=27;fontColor=#FFFFFF;fontStyle=1" vertex="1" parent="1">
          <mxGeometry x="707" y="550" width="280" height="60" as="geometry" />
        </mxCell>
        <mxCell id="0dKkaH4FrhMoxClk_v_9-17" value="Email&lt;div&gt;Signals&lt;/div&gt;&lt;div&gt;Workflows&lt;/div&gt;" style="text;html=1;strokeColor=none;fillColor=none;align=center;verticalAlign=middle;whiteSpace=wrap;rounded=0;shadow=0;fontSize=14;fontColor=#FFFFFF;" vertex="1" parent="1">
          <mxGeometry x="707" y="850" width="280" height="90" as="geometry" />
        </mxCell>
        <mxCell id="0dKkaH4FrhMoxClk_v_9-18" value="" style="line;strokeWidth=2;html=1;rounded=0;shadow=0;fontSize=27;align=center;fillColor=none;strokeColor=#FFFFFF;" vertex="1" parent="1">
          <mxGeometry x="727" y="610" width="240" height="10" as="geometry" />
        </mxCell>
        <mxCell id="0dKkaH4FrhMoxClk_v_9-19" value="" style="line;strokeWidth=2;html=1;rounded=0;shadow=0;fontSize=27;align=center;fillColor=none;strokeColor=#FFFFFF;" vertex="1" parent="1">
          <mxGeometry x="727" y="830" width="240" height="10" as="geometry" />
        </mxCell>
        <mxCell id="0dKkaH4FrhMoxClk_v_9-20" value="LEADS" style="ellipse;whiteSpace=wrap;html=1;rounded=0;shadow=0;strokeWidth=6;fontSize=14;align=center;fillColor=#EF9353;strokeColor=#FFFFFF;fontColor=#FFFFFF;" vertex="1" parent="1">
          <mxGeometry x="650" y="670" width="115" height="115" as="geometry" />
        </mxCell>
        <mxCell id="0dKkaH4FrhMoxClk_v_9-21" value="" style="html=1;shadow=0;dashed=0;align=center;verticalAlign=middle;shape=mxgraph.arrows2.stylisedArrow;dy=0.6;dx=40;notch=15;feather=0.4;rounded=0;strokeWidth=1;fontSize=27;strokeColor=none;fillColor=#fff2cc;" vertex="1" parent="1">
          <mxGeometry x="797" y="698" width="100" height="60" as="geometry" />
        </mxCell>
        <mxCell id="0dKkaH4FrhMoxClk_v_9-22" value="" style="whiteSpace=wrap;html=1;rounded=1;shadow=0;strokeWidth=8;fontSize=20;align=center;fillColor=#FE9900;strokeColor=#FFFFFF;" vertex="1" parent="1">
          <mxGeometry x="987" y="530" width="280" height="430" as="geometry" />
        </mxCell>
        <mxCell id="0dKkaH4FrhMoxClk_v_9-23" value="阶段四：数据预测" style="text;html=1;strokeColor=none;fillColor=none;align=center;verticalAlign=middle;whiteSpace=wrap;rounded=0;shadow=0;fontSize=27;fontColor=#FFFFFF;fontStyle=1" vertex="1" parent="1">
          <mxGeometry x="987" y="550" width="280" height="60" as="geometry" />
        </mxCell>
        <mxCell id="0dKkaH4FrhMoxClk_v_9-24" value="Events&lt;div&gt;Social Inbox&lt;/div&gt;&lt;div&gt;Smart Content&lt;/div&gt;" style="text;html=1;strokeColor=none;fillColor=none;align=center;verticalAlign=middle;whiteSpace=wrap;rounded=0;shadow=0;fontSize=14;fontColor=#FFFFFF;" vertex="1" parent="1">
          <mxGeometry x="987" y="850" width="280" height="90" as="geometry" />
        </mxCell>
        <mxCell id="0dKkaH4FrhMoxClk_v_9-25" value="" style="line;strokeWidth=2;html=1;rounded=0;shadow=0;fontSize=27;align=center;fillColor=none;strokeColor=#FFFFFF;" vertex="1" parent="1">
          <mxGeometry x="1007" y="610" width="240" height="10" as="geometry" />
        </mxCell>
        <mxCell id="0dKkaH4FrhMoxClk_v_9-26" value="" style="line;strokeWidth=2;html=1;rounded=0;shadow=0;fontSize=27;align=center;fillColor=none;strokeColor=#FFFFFF;" vertex="1" parent="1">
          <mxGeometry x="1007" y="830" width="240" height="10" as="geometry" />
        </mxCell>
        <mxCell id="0dKkaH4FrhMoxClk_v_9-27" value="CUSTOMERS" style="ellipse;whiteSpace=wrap;html=1;rounded=0;shadow=0;strokeWidth=6;fontSize=14;align=center;fillColor=#68B85C;strokeColor=#FFFFFF;fontColor=#FFFFFF;" vertex="1" parent="1">
          <mxGeometry x="930" y="670" width="115" height="115" as="geometry" />
        </mxCell>
        <mxCell id="0dKkaH4FrhMoxClk_v_9-28" value="" style="html=1;shadow=0;dashed=0;align=center;verticalAlign=middle;shape=mxgraph.arrows2.stylisedArrow;dy=0.6;dx=40;notch=15;feather=0.4;rounded=0;strokeWidth=1;fontSize=27;strokeColor=none;fillColor=#fff2cc;" vertex="1" parent="1">
          <mxGeometry x="1077" y="698" width="100" height="60" as="geometry" />
        </mxCell>
        <mxCell id="0dKkaH4FrhMoxClk_v_9-29" value="PROMOTERS" style="ellipse;whiteSpace=wrap;html=1;rounded=0;shadow=0;strokeWidth=6;fontSize=14;align=center;fillColor=#BF639A;strokeColor=#FFFFFF;fontColor=#FFFFFF;" vertex="1" parent="1">
          <mxGeometry x="1210" y="670" width="115" height="115" as="geometry" />
        </mxCell>
        <mxCell id="0dKkaH4FrhMoxClk_v_9-30" value="" style="ellipse;whiteSpace=wrap;html=1;rounded=0;shadow=0;comic=0;strokeWidth=1;fontFamily=Verdana;fontSize=14;strokeColor=none;fillColor=#0069D1;" vertex="1" parent="1">
          <mxGeometry x="90" y="980" width="500" height="500" as="geometry" />
        </mxCell>
        <mxCell id="0dKkaH4FrhMoxClk_v_9-31" value="&lt;font style=&quot;font-size: 18px;&quot;&gt;数字化业务&lt;/font&gt;" style="ellipse;whiteSpace=wrap;html=1;rounded=0;shadow=0;comic=0;strokeWidth=1;fontFamily=Verdana;fontSize=22;strokeColor=none;fillColor=#ffffff;fontColor=#0069D1;fontStyle=1" vertex="1" parent="1">
          <mxGeometry x="210" y="1100" width="260" height="260" as="geometry" />
        </mxCell>
        <mxCell id="0dKkaH4FrhMoxClk_v_9-32" value="Community" style="shadow=0;dashed=0;html=1;strokeColor=none;fillColor=#ffffff;labelPosition=center;verticalLabelPosition=bottom;verticalAlign=top;shape=mxgraph.office.users.users;rounded=0;comic=0;fontFamily=Verdana;fontSize=14;fontColor=#FFFFFF;" vertex="1" parent="1">
          <mxGeometry x="160" y="1310" width="46" height="50" as="geometry" />
        </mxCell>
        <mxCell id="0dKkaH4FrhMoxClk_v_9-33" value="Customer&lt;div&gt;Service&lt;/div&gt;" style="shadow=0;dashed=0;html=1;strokeColor=none;fillColor=#ffffff;labelPosition=center;verticalLabelPosition=bottom;verticalAlign=top;shape=mxgraph.office.users.call_center_agent;rounded=0;comic=0;fontFamily=Verdana;fontSize=14;fontColor=#FFFFFF;" vertex="1" parent="1">
          <mxGeometry x="486" y="1283" width="46" height="55" as="geometry" />
        </mxCell>
        <mxCell id="0dKkaH4FrhMoxClk_v_9-34" value="Response&lt;div&gt;Group&lt;/div&gt;" style="shadow=0;dashed=0;html=1;strokeColor=none;fillColor=#ffffff;labelPosition=center;verticalLabelPosition=bottom;verticalAlign=top;shape=mxgraph.office.users.response_group;rounded=0;comic=0;fontFamily=Verdana;fontSize=14;fontColor=#FFFFFF;" vertex="1" parent="1">
          <mxGeometry x="160" y="1073" width="58" height="54" as="geometry" />
        </mxCell>
        <mxCell id="0dKkaH4FrhMoxClk_v_9-35" value="阶段一：ERP实施" style="shadow=0;dashed=0;html=1;strokeColor=none;fillColor=#ffffff;labelPosition=center;verticalLabelPosition=bottom;verticalAlign=top;shape=mxgraph.office.services.central_management_service;rounded=0;comic=0;fontFamily=Verdana;fontSize=14;fontColor=#FFFFFF;" vertex="1" parent="1">
          <mxGeometry x="127" y="1183" width="51" height="54" as="geometry" />
        </mxCell>
        <mxCell id="0dKkaH4FrhMoxClk_v_9-36" value="Digital&lt;div&gt;Development&lt;/div&gt;" style="shadow=0;dashed=0;html=1;strokeColor=none;fillColor=#ffffff;labelPosition=center;verticalLabelPosition=bottom;verticalAlign=top;shape=mxgraph.office.servers.on_premises_server;rounded=0;comic=0;fontFamily=Verdana;fontSize=14;fontColor=#FFFFFF;" vertex="1" parent="1">
          <mxGeometry x="510" y="1152" width="44" height="58" as="geometry" />
        </mxCell>
        <mxCell id="0dKkaH4FrhMoxClk_v_9-37" value="Technology&lt;div&gt;Certificates&lt;/div&gt;" style="shadow=0;dashed=0;html=1;strokeColor=none;fillColor=#ffffff;labelPosition=center;verticalLabelPosition=bottom;verticalAlign=top;shape=mxgraph.office.security.token_service;rounded=0;comic=0;fontFamily=Verdana;fontSize=14;fontColor=#FFFFFF;" vertex="1" parent="1">
          <mxGeometry x="260" y="1362" width="60" height="56" as="geometry" />
        </mxCell>
        <mxCell id="0dKkaH4FrhMoxClk_v_9-38" value="Infrastructure" style="shadow=0;dashed=0;html=1;strokeColor=none;fillColor=#ffffff;labelPosition=center;verticalLabelPosition=bottom;verticalAlign=top;shape=mxgraph.office.concepts.on_premises;rounded=0;comic=0;fontFamily=Verdana;fontSize=14;fontColor=#FFFFFF;" vertex="1" parent="1">
          <mxGeometry x="403" y="1360" width="34" height="55" as="geometry" />
        </mxCell>
        <mxCell id="0dKkaH4FrhMoxClk_v_9-39" value="Global&lt;div&gt;Partnerships&lt;/div&gt;" style="shadow=0;dashed=0;html=1;strokeColor=none;fillColor=#ffffff;labelPosition=center;verticalLabelPosition=bottom;verticalAlign=top;shape=mxgraph.office.concepts.globe_internet;rounded=0;comic=0;fontFamily=Verdana;fontSize=14;fontColor=#FFFFFF;" vertex="1" parent="1">
          <mxGeometry x="251" y="1010" width="49" height="49" as="geometry" />
        </mxCell>
        <mxCell id="0dKkaH4FrhMoxClk_v_9-41" value="阶段二：利润报表" style="shape=mxgraph.signs.travel.euro;html=1;fillColor=#ffffff;strokeColor=none;verticalLabelPosition=bottom;verticalAlign=top;align=center;rounded=0;shadow=0;dashed=0;comic=0;fontFamily=Verdana;fontSize=14;fontColor=#FFFFFF;" vertex="1" parent="1">
          <mxGeometry x="447" y="1059" width="45" height="51" as="geometry" />
        </mxCell>
        <mxCell id="0dKkaH4FrhMoxClk_v_9-40" value="Environmental&lt;div&gt;Awareness&lt;/div&gt;" style="shadow=0;dashed=0;html=1;strokeColor=#CFE1F5;shape=mxgraph.mscae.general.continuous_cycle;fillColor=#ffffff;rounded=0;comic=0;fontFamily=Verdana;fontSize=14;fontColor=#FFFFFF;verticalAlign=top;labelPosition=center;verticalLabelPosition=bottom;align=center;" vertex="1" parent="1">
          <mxGeometry x="247" y="1130" width="180" height="200" as="geometry" />
        </mxCell>
      </root>
    </mxGraphModel>
  </diagram>
</mxfile>
